<?xml version="1.0" encoding="utf-8"?>
<!-- Generator: Adobe Illustrator 25.0.1, SVG Export Plug-In . SVG Version: 6.00 Build 0)  -->
<svg version="1.1" id="Layer_1" xmlns="http://www.w3.org/2000/svg"
	xmlns:xlink="http://www.w3.org/1999/xlink" x="0px" y="0px"
	viewBox="0 0 1080 1080" style="enable-background:new 0 0 1080 1080;" xml:space="preserve">
<style type="text/css">
	.st0{fill:#25225F;}
</style>
<g>
	<g>
		<path class="st0" d="M863.71,563.31c-5.58-4.78-8.79-11.77-8.79-19.12v-5.84l-14.52-16.36l15.84-3.96l-0.79-76.44l-22.97-24.55
			l-63.95,15.83l-0.79-19.8l-21.38-22.18l-0.65,0.16c0,0,0,0,0,0l0,0c0,0-0.53,0.13-1.46,0.36c-0.07,0.02-0.14,0.03-0.22,0.05
			l-43.6,10.52c-0.01,0-0.01,0-0.01,0l-0.1,0.21l-25.1,51.01l0.96-0.25l-0.01,0.02l-0.95,0.24l-55.61,14.11l25.37-49.24
			l-62.96,17.16l0,0l0,0l-26.13,48.8l-55.44,14.16l4.62-8.86l20.33-39.05l0,0l0,0l-63.85,17.32l-0.03,0.06l-25.6,47.16l0.8-0.21v0
			l-0.01,0.01l-54.75,13.76l-90.78,22.87L277.5,536.9l116.3-30.93l11.9-22.51l-11.52-12.05l360.21-98.07v-51.3l0.07-0.02v-5.87
			l-29.51-26.63l-0.03,0.01l0,0l-15.8-14.36l-68.9,18.58v20.59l25.61-6.99l33.52,30.23l-51.61,13.86l-24.79-21.53l-9.89-8.59l0,0
			l-17.79-15.45l-60.65,16.66l-0.26,20.46l23.09-5.02l30.06,27.48l2.28,2.08l0,0l0,0l0,0l0,0l-48.94,13.98l-34.94-29.52l-0.36,0.1
			h-0.01l-19.86-16.54l-63.75,17.72v21.49l27.61-7.23l32.69,29.28l0.57,0.52l-0.53,0.15l-49.83,14.25l0,0.08l-0.24,0.07l-0.08-0.06
			l0.31-0.09l-18.77-15.32l-0.73-0.6l-15.23-12.99l-0.26,0.08l-19.39-16.17l-144.04,38.28v125.45l14.24,33.23l-41.67,11v42.86
			l15.04,15.84l-0.19,7.82l26.63,26.33v30.29l-26.86,6.99l-0.33,56.5c15.06,14.49,30.12,28.99,45.18,43.49
			c194.24-48.44,410.97-103.09,605.21-151.53l2.12-81.69L863.71,563.31z M768.77,561.89c0-2.71,1.89-5.06,4.54-5.63l11.26-2.44
			c0,0-1.85-19.01,5.68-27.59c0,0-7.72-9.37-6.34-24.35l-10.93,2.76c-2.14,0.54-4.22-1.08-4.22-3.28v-36.64l18.37-4.82
			c1.57-0.41,3.11,0.77,3.11,2.4v34.11l23.47-5.54v-34.43c0-1.36,0.91-2.54,2.21-2.88l15.77-4.21c1.33-0.36,2.63,0.63,2.65,2
			l0.61,36c0.02,1.14-0.74,2.15-1.85,2.43l-13.56,3.48c0,0,0.4,17.22-6.44,26.63c0,0,8.62,10.79,5.65,26.82l11.62-1.12
			c0,0,4.42-0.4,4.61,6l0.4,25.74l-19.46,4.28c-0.96,0.21-1.87-0.52-1.88-1.5l-0.18-22.51c-0.01-0.43-0.36-0.76-0.79-0.73l-7.65,0.6
			c-0.94,0.08-1.76-0.65-1.8-1.6l-0.33-8.1h-2.9v5.93c0,3.5-2.63,6.44-6.1,6.83l-3.8,0.43l-0.4,27.32l-18.05,4.47
			c-1.67,0.41-3.3-0.85-3.3-2.57V561.89z M754.61,467.97c1.36-0.34,2.67,0.68,2.67,2.09l0.1,123.46c0,1.27-0.88,2.38-2.12,2.67
			l-17.15,3.95c-1.33,0.31-2.61-0.71-2.61-2.09V475.32c0-1.47,0.99-2.75,2.41-3.1C742.02,471.16,750.34,469.05,754.61,467.97z
			 M669.08,489.01l21.38-6.07v106.39l36.17-8.44l0.79,22.24l-41.71,11.02c0,0-16.33,4.02-16.63-7.95V489.01z M510.29,540.23
			c0,0,2.11-12.42,16.77-16.38l49.23-12.28c0,0,3.16-0.79,3.03,3.95l0.01,36.96l-20.73,5.28c0,0-1.71,0.1-1.55-2.84l0.03-14.7
			l-25.31,6.36l-0.29,81.27l25.74-6.53l-0.4-14.95l22.51-4.75v26.92c0,0-2.91,8.61-11.72,13.96l-43.66,11.18
			c0,0-10.66,2.51-14.59-8.15L510.29,540.23z M495.79,657.4c0,1.28-0.88,2.38-2.12,2.67l-17.14,3.95c-1.34,0.31-2.62-0.71-2.62-2.09
			V539.2c0-1.46,0.99-2.74,2.41-3.1c4.1-1.05,12.42-3.16,16.7-4.24c1.36-0.35,2.68,0.67,2.68,2.08L495.79,657.4z M396.23,568.1
			v-11.87l63.56-15.89c0,0,5.08-0.95,5.21,3.48v52.27l-12.35,3.96l-0.19,8.91c0,0-0.07,7.06-11.02,8.84l-4.09,0.6l-0.13,14.12
			l-13.93,2.9c0,0-5.34,0.99-4.89,4.96l-0.06,15.04L465,644.79v22.37l-61.71,14.85c0,0-7.68-0.4-7.06-8.41l0.53-38.61
			c0,0,1.19-12.77,17.32-20.39l11.19-2.57c0,0,2.77,0.1,2.77-2.97c0-3.06,0.2-10.29,0.2-10.29l15.54-4.06l-0.4-26.92l-47.19,11.48
			L396.23,568.1z M261.93,435.4c0-8.17,5.52-15.32,13.43-17.38l63.54-17.6l31.29,27.89l-13.49,4.02v47.75c0,6.08-4.12,11.38-10,12.9
			l-68.5,17.56c-8.24,2.11-16.26-4.12-16.26-12.62V435.4z M308.12,620.56c0,0-3.43,16.37-14.52,24.81l0.53,81.32
			c0,0-1.85,11.61-11.09,14.78l-29.3,7.39c0,0-5.14-0.26-7.13-4.09l0.4-15.44l26.14-6.6l-0.14-72.07c0,0-8.44,0.79-11.35-11.88
			l-0.53-8.58c0,0-10.3,1.71-13.87-5.94c0,0-1.12-1.52-1.78-6.07l-0.13-7.26l-2.57-0.66l-13.07-12.14l34.84-8.45v35.64l22.71-5.02
			v-37.49l20.85-4.22V620.56z M340.6,696.85l-20.86,6.2V587.7c0,0,1.05-10.69,18.35-17.42l37.09-8.31c0,0,10.69,0.26,10.69,9.24
			l0.53,114.58l-22.18,6.6l-0.13-41.05l-23.36,5.41L340.6,696.85z M464.18,716.59l-0.08,0.02l-102.65,27.24
			c-1.74,0.46-3.44-0.85-3.44-2.64v-10.68c0-1.26,0.86-2.35,2.08-2.65l105.85-26.28l4.57-1.13l119.1-29.62l15.49,10.83
			L464.18,716.59z M690.46,642.05c0,0-0.53,5.15-8.31,8.18l-42.64,10.9c0,0-3.43-0.13-3.3-3.83l0.13-73.79l-23.57,5.81l-1.05,40.92
			l-15.66,4.6c0,0-5.27,1.8-5.59-2.62l0.26-111.67c0,0,2.44-11.02,14.85-15.84l51.94-13l0.46,142.59l29.24-5.84
			c0,0,3.3,0.13,3.23,4.09V642.05z M838.69,623.87l-100.78,25.65l-10.49-11.48l111.27-28.35V623.87z"/>
		<polygon class="st0" points="294.04,481.35 309.01,463.48 323.55,475.73 331.05,466.83 316.48,454.55 331.76,436.3 322.84,428.84 
			307.58,447.06 293.33,435.06 285.84,443.95 300.11,455.98 285.12,473.88 		"/>
		<polygon class="st0" points="612.53,564.17 635.88,559.16 635.88,521.01 612.53,526.95 		"/>
		<polygon class="st0" points="364.48,588.16 340.63,594.2 340.63,632.51 364.48,626.57 		"/>
	</g>
</g>
</svg>